# xmcd
# Track frame offsets:
# 150
# 18723
# 38469
# 57678
# 77771
# 94259
# 107242
# 125852
# 145061
# 161369
# 179336
# 196490
# 213368
# 229971
# 250125
#
# Disc length: 3653 seconds
# Revision: 0
# Processed by: cddbd v1.5.1PL0 Copyright (c) Steve Scherf et al.
# Submitted via: VisiTrax 2.9.10.228 - For more info visit www.synapsa.com
#
DISCID=d70e430f
DTITLE=Various Artist - CB60318
DYEAR=1900
DGENRE=Karaoke
TTITLE0=Kershaw, Sammy - Beer, Bait and Ammo
TTITLE1=Chesney, Kenny - There Goes My Life
TTITLE2=Wilkinson, Amanda - Gone From Love Too Long
TTITLE3=McGraw, Tim - Watch The Wind Blow By
TTITLE4=Bentley, Dierks - My Last Name
TTITLE5=Wills, Mark - That's A Woman
TTITLE6=Rascal Flatts - One Good Love
TTITLE7=Big and Rich - Wild West Show
TTITLE8=Isaacs, Sonya - No Regrets Yet
TTITLE9=Worley, Darryl - I Will Hold My Ground
TTITLE10=Jeff and Sheri Easter - My Country
TTITLE11=Martins, The - I Can't Help Myself
TTITLE12=Jewell, Buddy - Sweet Southern Comfort
TTITLE13=Twain, Shania - Nah!
TTITLE14=Cyrus, Billy Ray - Always Sixteen
EXTD=
EXTT0=
EXTT1=
EXTT2=
EXTT3=
EXTT4=
EXTT5=
EXTT6=
EXTT7=
EXTT8=
EXTT9=
EXTT10=
EXTT11=
EXTT12=
EXTT13=
EXTT14=
PLAYORDER=
